<?xml version="1.0" encoding="UTF-8"?>
<svg id="Layer_1" data-name="Layer 1" xmlns="http://www.w3.org/2000/svg" viewBox="0 0 24 24">
  <defs>
    <style>
      .cls-1 {
        fill: #005559;
      }
    </style>
  </defs>
  <path class="cls-1" d="m10.98,22s-.07-.01-.11-.02c-1.04-.06-2.09-.1-3.13-.19-1.29-.11-2.58-.31-3.82-.71-.28-.09-.55-.21-.83-.32-.14-.06-.19-.17-.18-.32.04-1.25.39-2.41,1.02-3.49.45-.76,1.08-1.31,1.9-1.64.76-.3,1.5-.64,2.25-.96.02,0,.04-.02.06-.02.11-.04.13-.03.14.09,0,.11,0,.23.02.34.1.81.39,1.55.82,2.24.08.12.17.17.32.14.58-.11,1.1-.35,1.55-.72.11-.09.2-.1.34-.05.46.17.93.17,1.38-.02.09-.04.15-.04.23.03.38.32.81.56,1.29.7.15.04.3.06.45.09.03,0,.09-.02.11-.05.5-.74.82-1.55.91-2.45.01-.12.01-.23.02-.36.04,0,.07,0,.1.02.93.4,1.87.8,2.8,1.21.58.26.99.71,1.33,1.23.6.91.94,1.92,1.09,3,.02.17.04.34.06.51v.13c0,.3-.21.4-.44.48-.22.08-.43.16-.65.22-1.21.37-2.45.57-3.71.69-1.02.09-2.05.13-3.08.19-.07,0-.14.01-.21.02h-2.04Zm.65-3.75c0,.33.25.59.58.59.33,0,.62-.27.62-.58,0-.33-.29-.61-.63-.62-.31,0-.56.27-.57.61Zm.59,1.26c-.35,0-.59.23-.59.56,0,.34.27.63.58.63.33,0,.61-.27.61-.61,0-.32-.27-.58-.6-.59Z"/>
  <path class="cls-1" d="m12.08,2c.2.02.4.03.59.07,1.69.27,3.01,1.08,3.76,2.67.15.31.22.65.3.98.03.13.08.19.21.22.19.04.38.12.5.28.07.1.15.23.15.35.01.88,0,1.75,0,2.63,0,.16-.09.26-.19.36-.26.27-.78.35-1.08.17-.07-.04-.09-.09-.09-.16,0-.93-.01-1.87-.02-2.8,0-.22,0-.44-.02-.67-.04-.99-.51-1.76-1.23-2.4-.57-.51-1.24-.84-1.98-1.02-.14-.03-.28-.06-.42-.06-.45,0-.9-.06-1.34,0-1.61.23-2.8,1.04-3.46,2.57-.13.31-.17.64-.17.98,0,1.27-.02,2.53,0,3.8.02.99.29,1.92.81,2.76.52.84,1.24,1.41,2.21,1.64.06.01.12.03.18.04.07.01.12,0,.16-.08.19-.45.53-.65,1.02-.61.34.02.68.01,1.02.02.34.01.69.29.7.69,0,.2.01.39,0,.59-.03.35-.3.62-.65.65-.36.02-.72,0-1.09,0-.12,0-.24-.02-.35,0-.18.02-.31-.06-.41-.19-.08-.1-.15-.22-.22-.33-.05-.09-.12-.15-.23-.17-1.56-.31-2.59-1.25-3.2-2.69-.3-.69-.45-1.42-.52-2.17-.02-.25-.02-.25-.26-.32-.18-.05-.33-.14-.44-.29-.06-.08-.12-.2-.12-.3-.02-.68-.02-1.36-.03-2.04,0-.2.01-.41.02-.61,0-.18.08-.32.23-.41.15-.09.31-.15.47-.21.09-.03.13-.06.15-.16.13-.85.5-1.58,1.08-2.2.77-.81,1.72-1.27,2.81-1.48.15-.03.3-.06.45-.08.22,0,.44,0,.67,0Z"/>
  <path class="cls-1" d="m10.6,13.82c-.61-.21-1.09-.56-1.48-1.04-.49-.6-.75-1.3-.88-2.06-.12-.73-.13-1.47-.13-2.21,0-.74,0-1.48.03-2.22.03-.9.39-1.63,1.07-2.22.45-.39.99-.6,1.55-.76,1.02-.29,2.01-.19,2.98.23.61.26,1.1.66,1.47,1.2.3.45.47.94.47,1.48,0,1.28.03,2.55,0,3.83-.03.93-.26,1.82-.83,2.58-.24.32-.52.61-.85.83-.08.06-.15.06-.24,0-.19-.14-.41-.23-.65-.26-.53-.06-1.07-.06-1.59,0-.39.05-.73.22-.91.61Z"/>
</svg>