<?xml version="1.0" encoding="UTF-8"?>
<svg id="Layer_1" data-name="Layer 1" xmlns="http://www.w3.org/2000/svg" viewBox="0 0 24 24">
  <defs>
    <style>
      .cls-1 {
        fill: #005559;
      }
    </style>
  </defs>
  <path class="cls-1" d="m6.54,15.3c.28-.22.56-.45.86-.68.1.31.21.59.29.88.08.29-.05.53-.27.71-.85.7-1.7,1.39-2.57,2.07-.28.22-.56.21-.79,0-.23-.2-.3-.46-.14-.78.33-.7.69-1.39,1.03-2.08.07-.14.13-.29.22-.47-.1-.01-.17-.03-.24-.03-.31,0-.61,0-.92,0-1.27-.03-1.98-.74-2-2.02-.01-.96,0-1.91,0-2.87,0-1.03-.02-2.07,0-3.1,0-.38.04-.76.13-1.13.16-.71,1.04-1.36,1.79-1.35,3.48.03,6.96.03,10.43,0,1,0,1.94.88,1.92,1.88-.01.57,0,1.15,0,1.72,0,1.64,0,3.27,0,4.91,0,1.2-.75,1.96-1.95,1.96-1.17,0-2.33,0-3.5,0-.11,0-.23,0-.35,0,0,.04-.02.07-.02.09,1.16,2.88,4.05,3.83,6.25,3.02.72-.26,1.46-.25,2.21-.11.34.06.68.1,1.11.17-.24-.35-.43-.62-.63-.9-.35-.5-.35-.65-.02-1.16,1.25-1.92,1.08-4.4-.46-6.12-.37-.41-.51-.83-.48-1.35,0-.19,0-.38,0-.64.18.11.3.17.41.25,2.47,1.75,3.32,5.17,1.93,7.86-.23.45-.2.76.11,1.13.34.41.63.87.94,1.3.17.24.24.5.08.78-.17.28-.43.33-.72.28-.98-.14-1.96-.31-2.95-.42-.31-.04-.65,0-.95.09-4.21,1.44-8.53-1.74-8.38-6.18.11-3.04,2.48-5.62,5.49-5.98q.65-.08.62-.63c-.02-.49-.22-.68-.76-.69-1.39,0-2.79,0-4.18,0-1.94,0-3.88,0-5.82,0-.06,0-.11,0-.17,0-.63,0-.85.22-.85.85,0,2.09,0,4.17,0,6.26,0,.67.2.87.88.87.64,0,1.28,0,1.92,0,.72.01.94.37.65,1.04-.08.17-.14.35-.22.52.02.01.04.03.06.04Zm8.5-4.55c0-.72,0-1.43,0-2.15q0-.38-.38-.35c-2.53.2-4.64,2.61-4.51,5.14.01.26.14.32.37.32,1.23,0,2.47,0,3.7,0,.62,0,.83-.2.83-.83,0-.71,0-1.42,0-2.12Z"/>
</svg>