<?xml version="1.0" encoding="UTF-8"?>
<svg id="Layer_1" data-name="Layer 1" xmlns="http://www.w3.org/2000/svg" viewBox="0 0 24 24">
  <defs>
    <style>
      .cls-1, .cls-2 {
        fill: #005559;
      }

      .cls-2 {
        font-family: Rockwell-ExtraBold, 'Rockwell Extra Bold';
        font-size: 3px;
        font-weight: 700;
      }
    </style>
  </defs>
  <path class="cls-1" d="m22,15.11v1c-.02.09-.06.18-.07.28-.58,3.69-4.92,5.39-7.85,3.07-.78-.62-1.3-1.41-1.64-2.36-.8,0-1.59-.01-2.37.01-.18,0-.4.1-.53.22-1.06.99-2.11,2-3.15,3.01-.22.21-.44.33-.74.21-.3-.12-.38-.38-.38-.67,0-.77,0-1.55,0-2.32,0-.14,0-.29,0-.45-.51,0-.95-.02-1.39,0-.91.05-1.55-.29-1.86-1.16V4.57c.4-.93.76-1.17,1.8-1.17,4.38,0,8.76,0,13.14,0,1.14,0,1.68.53,1.68,1.67,0,1.85,0,3.7,0,5.55,0,.27.08.4.34.51,1.33.55,2.26,1.51,2.75,2.87.13.36.2.74.3,1.11Zm-4.57-4.36c0-.17,0-.3,0-.44,0-1.71,0-3.43,0-5.14,0-.56-.03-.59-.58-.59-3.03,0-6.06,0-9.08,0-1.35,0-2.71,0-4.06,0-.38,0-.51.14-.51.52,0,3.43,0,6.86,0,10.29,0,.4.15.54.54.53.46-.02.91,0,1.37,0q1.35,0,1.35,1.36c0,.42,0,.83,0,1.35.83-.79,1.57-1.47,2.28-2.19.37-.38.75-.55,1.28-.52.73.04,1.46.01,2.18.01.02-3.19,2.43-5.28,5.25-5.16Zm-.91,2.1c-.77.75-1.51,1.47-2.21,2.16.75.73,1.5,1.47,2.23,2.19v-.97c1.36-.31,2.5,0,3.48,1.14-.27-2.17-1.44-3.27-3.49-3.47v-1.04Z"/>
  <text class="cls-2" transform="translate(5.81 9.08)"><tspan x="0" y="0">CRM</tspan></text>
</svg>