<?xml version="1.0" encoding="UTF-8"?>
<svg id="Layer_1" data-name="Layer 1" xmlns="http://www.w3.org/2000/svg" viewBox="0 0 24 24">
  <defs>
    <style>
      .cls-1 {
        fill: #005559;
      }
    </style>
  </defs>
  <path class="cls-1" d="m7.06,19.75c-.85.17-1.69.34-2.53.51-.2.04-.37,0-.5-.16-.13-.16-.13-.34-.05-.52.65-1.49,1.31-2.98,1.96-4.47.04-.1.08-.21.14-.3.07-.13.06-.22-.04-.34-.94-1.16-1.5-2.48-1.65-3.97-.23-2.24.4-4.23,1.88-5.92,1.27-1.44,2.87-2.3,4.79-2.52,2.53-.29,4.71.49,6.49,2.31,1.15,1.18,1.83,2.6,2.05,4.24.21,1.53-.02,2.99-.68,4.38-.26.56-.59,1.07-.99,1.54-.06.07-.06.13-.03.21.7,1.59,1.4,3.17,2.09,4.76.03.07.07.15.08.22.06.34-.23.61-.57.54-.8-.16-1.6-.32-2.4-.49-.12-.03-.19,0-.25.11-.36.62-.73,1.23-1.1,1.84-.1.18-.25.28-.46.27-.21-.01-.34-.13-.42-.32-.65-1.42-1.3-2.85-1.94-4.27-.04-.08-.08-.11-.18-.11-.5,0-1.01,0-1.51,0-.09,0-.13.03-.17.11-.65,1.42-1.3,2.85-1.95,4.27-.15.33-.49.43-.75.21-.05-.04-.1-.1-.13-.16-.37-.61-.73-1.22-1.1-1.82-.03-.05-.06-.09-.09-.14Zm11.67-10.09c0-3.71-3.01-6.73-6.72-6.73-3.7,0-6.72,3.01-6.73,6.71,0,3.7,2.96,6.68,6.6,6.74,3.81.06,6.84-3,6.85-6.72Zm-11.87,5.71c-.55,1.26-1.1,2.52-1.66,3.79.04,0,.06,0,.08,0,.62-.13,1.24-.25,1.86-.38.28-.06.44.01.59.26.27.45.54.9.81,1.35.02.04.05.08.08.13.52-1.15,1.03-2.27,1.54-3.39,0,0-3.3-1.75-3.31-1.76Zm10.28-.01c-.48.43-1,.79-1.55,1.09-.56.3-1.14.51-1.76.67.52,1.14,1.03,2.26,1.55,3.4.31-.52.61-1.01.9-1.5.14-.22.31-.3.56-.25.5.1.99.2,1.49.3.15.03.3.06.48.09-.56-1.28-1.11-2.53-1.67-3.81Z"/>
  <path class="cls-1" d="m12.01,3.59c3.35,0,6.07,2.72,6.07,6.07,0,3.33-2.68,6.07-6.07,6.07-3.38,0-6.06-2.73-6.08-6.07-.01-3.34,2.72-6.08,6.08-6.08Zm5.12,6.07c0-2.78-2.23-5.1-5.07-5.12-2.9-.02-5.18,2.26-5.18,5.14,0,2.82,2.3,5.12,5.13,5.12,2.84,0,5.12-2.29,5.12-5.13Z"/>
  <path class="cls-1" d="m11.99,11.41c-.5.37-1,.73-1.5,1.09-.31.22-.71.05-.75-.32,0-.08.01-.18.04-.26.17-.54.34-1.07.52-1.61.03-.09.01-.13-.06-.19-.47-.34-.94-.68-1.41-1.02-.26-.19-.29-.55-.04-.74.09-.07.23-.11.34-.11.57-.01,1.14,0,1.72,0,.09,0,.13-.03.16-.11.17-.53.34-1.06.51-1.58.09-.27.25-.41.47-.42.23,0,.39.14.48.42.17.52.34,1.05.51,1.57.03.09.07.12.16.12.56,0,1.13,0,1.69,0,.26,0,.44.12.51.33.07.21,0,.41-.22.56-.46.33-.91.66-1.37.99-.08.06-.09.1-.06.2.18.54.35,1.08.53,1.62.08.24.02.44-.16.57-.18.13-.39.12-.59-.03-.48-.35-.97-.71-1.45-1.06,0,0-.02,0-.03-.02Zm-.88-.52c.2-.14.36-.26.53-.39.28-.2.44-.2.72,0,.17.12.33.24.53.38-.08-.24-.15-.45-.21-.65-.09-.28-.04-.46.2-.64.17-.13.35-.25.52-.38-.22-.03-.43-.03-.64-.03-.32,0-.46-.11-.56-.41-.06-.2-.13-.4-.2-.6-.09.21-.16.42-.23.63-.08.24-.24.37-.47.38-.08,0-.15,0-.23,0-.16,0-.32,0-.48,0,.17.15.35.28.52.41.24.17.29.35.2.63-.07.21-.14.42-.21.66Z"/>
</svg>