<?xml version="1.0" encoding="UTF-8"?>
<svg id="Layer_1" data-name="Layer 1" xmlns="http://www.w3.org/2000/svg" viewBox="0 0 24 24">
  <defs>
    <style>
      .cls-1, .cls-2 {
        fill: #005559;
      }

      .cls-2 {
        font-family: Rockwell-ExtraBold, 'Rockwell Extra Bold';
        font-size: 3px;
        font-weight: 700;
      }
    </style>
  </defs>
  <g>
    <path class="cls-1" d="m11.67,3.8c2.94,0,5.87,0,8.81,0,.17,0,.35,0,.52.04.54.1.83.44.84.99.02.87.02,1.75,0,2.62,0,.57-.26.87-.9,1.02-1.33.33-2.11,1.52-2.04,2.73.02.33.1.55.49.66,1.85.5,3.12,2.21,3.11,4.11,0,1.89-1.3,3.58-3.14,4.1-1.62.46-3.42-.14-4.48-1.52-.18-.23-.37-.29-.63-.29-3.79,0-7.57,0-11.36,0-.17,0-.35,0-.52-.04-.56-.11-.86-.47-.86-1.05,0-.8,0-1.6,0-2.4,0-.72.2-1,.88-1.19.88-.23,1.51-.74,1.87-1.58.57-1.35-.14-3.01-1.55-3.43-.94-.28-1.25-.46-1.2-1.68.03-.64,0-1.27,0-1.91,0-.78.38-1.17,1.17-1.19.36,0,.72,0,1.09,0,2.64,0,5.27,0,7.91,0Zm2.56,13.79c-.09-.52-.24-.99-.25-1.47-.08-2.36,1.64-4.23,4.01-4.42.22-.02.29-.07.27-.32-.13-1.73.83-3.09,2.51-3.55.31-.08.45-.24.45-.54,0-.77,0-1.55,0-2.32,0-.34-.15-.48-.51-.48-4.32,0-8.64,0-12.96,0-.11,0-.24,0-.32.06-.5.34-.84.34-1.32,0-.08-.06-.21-.07-.32-.07-1.05,0-2.1,0-3.15,0-.34,0-.47.13-.47.47,0,.72,0,1.45,0,2.17q0,.59.56.74c1.37.37,2.38,1.68,2.39,3.09,0,1.55-.95,2.82-2.46,3.22-.36.1-.51.27-.5.65.02.72,0,1.45,0,2.17,0,.48.11.6.59.6,1,0,2,0,3,0,.14,0,.3-.09.4-.19.23-.22.94-.24,1.18-.03.13.11.33.22.49.22,2.01.02,4.02,0,6.03,0,.11,0,.22-.01.37-.02Zm7.62-1.61c.03-1.91-1.58-3.58-3.44-3.64-2.04-.06-3.72,1.49-3.78,3.53-.06,1.94,1.58,3.65,3.48,3.68,2.04.04,3.7-1.55,3.74-3.58Z"/>
    <path class="cls-1" d="m8.1,11.01c0-1.76,0-3.52,0-5.28,0-.1-.03-.22,0-.3.05-.11.15-.25.25-.27.1-.01.27.08.31.18.07.15.07.34.07.51,0,3.45,0,6.89,0,10.34,0,.17,0,.36-.07.51-.04.09-.21.2-.31.18-.1-.01-.2-.16-.25-.26-.04-.08-.01-.2-.01-.3,0-1.77,0-3.55,0-5.32Z"/>
    <path class="cls-1" d="m6.74,6.44c-.07,0-.15,0-.22,0-.22-.01-.43-.11-.38-.34.02-.12.23-.24.38-.29.14-.05.33-.05.48,0,.15.05.36.17.39.29.05.23-.15.34-.38.35-.09,0-.17,0-.26,0Z"/>
    <path class="cls-1" d="m6.78,15.62c.09,0,.19-.03.26,0,.13.08.24.2.36.3-.11.11-.2.28-.33.32-.18.06-.39.02-.59.01-.21-.01-.4-.12-.34-.34.03-.12.21-.22.35-.3.08-.04.19,0,.29,0Z"/>
    <path class="cls-1" d="m6.76,7.42c.26.03.61-.08.62.31.01.41-.34.35-.6.34-.27,0-.65.09-.64-.34.01-.41.39-.27.62-.31Z"/>
    <path class="cls-1" d="m6.77,9.06c.26.01.63-.07.62.34,0,.37-.36.33-.63.34-.05,0-.1,0-.15,0-.23-.02-.48-.05-.47-.35,0-.3.25-.33.49-.32.05,0,.1,0,.15,0Z"/>
    <path class="cls-1" d="m6.74,14.63c-.25-.03-.6.08-.6-.32,0-.39.34-.33.59-.33.27,0,.66-.11.65.34,0,.42-.39.27-.64.31Z"/>
    <path class="cls-1" d="m6.78,11.35c-.26-.04-.64.08-.65-.31-.01-.44.39-.32.65-.32.24,0,.6-.09.61.29.01.41-.36.31-.6.35Z"/>
    <path class="cls-1" d="m6.74,12.98c-.09,0-.19.03-.26,0-.13-.08-.24-.2-.36-.3.11-.11.21-.27.34-.31.18-.05.41-.05.59,0,.13.04.23.2.34.31-.12.1-.22.23-.36.3-.08.04-.2,0-.29,0Z"/>
    <circle class="cls-1" cx="18.33" cy="16.04" r="3.89"/>
  </g>
  <text class="cls-2" transform="translate(9.86 8.45)"><tspan x="0" y="0">CRM</tspan></text>
</svg>